<!--?xml version="1.0" encoding="utf-8"?-->
<!-- Generator: Adobe Illustrator 18.1.1, SVG Export Plug-In . SVG Version: 6.00 Build 0)  -->

<svg version="1.1" id="_x31_0" xmlns="http://www.w3.org/2000/svg" xmlns:xlink="http://www.w3.org/1999/xlink" x="0px" y="0px" viewBox="0 0 512 512" style="width: 256px; height: 256px; opacity: 1;" xml:space="preserve">
<style type="text/css">
	.st0{fill:#374149;}
</style>
<g>
	<path class="st0" d="M509.797,341.833l-28.477-28.477c-2.934-2.938-7.699-2.938-10.637,0l-52.664,52.668l-29.832-29.832
		l52.668-52.668c2.938-2.938,2.938-7.699,0-10.637l-28.477-28.473c-2.937-2.938-7.699-2.938-10.637,0l-52.664,52.664l-36.473-36.469
		l0.004-0.004c36.238-63.824,27.18-146.363-27.207-200.75C220.105-5.441,114.261-5.418,48.964,59.88
		c-65.274,65.274-65.297,171.117,0,236.414c11.89,11.89,25.18,21.484,39.278,29.043c0.199,0.109,0.398,0.218,0.602,0.324
		c43.824,23.274,95.742,25.679,141.262,7.195c0.219-0.09,0.43-0.184,0.649-0.27c3.152-1.297,6.281-2.649,9.367-4.145
		c0.422-0.203,0.828-0.438,1.25-0.644c2.797-1.387,5.606-2.742,8.336-4.297L414.285,488.08c17.367,17.367,45.528,17.367,62.895,0
		l0,0c17.37-17.367,17.37-45.528,0-62.895l-20.051-20.05l52.668-52.664C512.734,349.533,512.734,344.767,509.797,341.833z
		 M117.316,128.231c27.504-27.504,72.203-27.504,99.71,0c27.481,27.481,27.504,72.207,0,99.711
		c-27.48,27.481-72.206,27.457-99.687-0.023C89.835,200.411,89.835,155.712,117.316,128.231z" style="fill: rgb(75, 75, 75);"></path>
</g>
</svg>
